HIERARCHY
ROOT root
{
	OFFSET 0.000000 0.000000 0.000000
	CHANNELS 6 Xposition Yposition Zposition Zrotation Yrotation Xrotation
	JOINT lhip
	{
		OFFSET 0.058581 -0.082280 -0.017664
		CHANNELS 3 Zrotation Yrotation Xrotation
		JOINT lknee
		{
			OFFSET 0.043451 -0.386469 0.008037
			CHANNELS 3 Zrotation Yrotation Xrotation
			JOINT lankle
			{
				OFFSET -0.014790 -0.426874 -0.037428
				CHANNELS 3 Zrotation Yrotation Xrotation
				JOINT ltoe
				{
					OFFSET 0.041054 -0.060286 0.122042
					CHANNELS 3 Zrotation Yrotation Xrotation
					End Site
					{
						OFFSET 0.000000 0.000000 0.000000
					}
				}
			}
		}
	}
	JOINT rhip
	{
		OFFSET -0.060310 -0.090513 -0.013543
		CHANNELS 3 Zrotation Yrotation Xrotation
		JOINT rknee
		{
			OFFSET -0.043257 -0.383688 -0.004843
			CHANNELS 3 Zrotation Yrotation Xrotation
			JOINT rankle
			{
				OFFSET 0.019056 -0.420046 -0.034562
				CHANNELS 3 Zrotation Yrotation Xrotation
				JOINT rtoe
				{
					OFFSET -0.034840 -0.062106 0.130323
					CHANNELS 3 Zrotation Yrotation Xrotation
					End Site
					{
						OFFSET 0.000000 0.000000 0.000000
					}
				}
			}
		}
	}
	JOINT lowerback
	{
		OFFSET 0.004439 0.124404 -0.038385
		CHANNELS 3 Zrotation Yrotation Xrotation
		JOINT upperback
		{
			OFFSET 0.004488 0.137956 0.026820
			CHANNELS 3 Zrotation Yrotation Xrotation
			JOINT chest
			{
				OFFSET -0.002265 0.056032 0.002855
				CHANNELS 3 Zrotation Yrotation Xrotation
				JOINT lowerneck
				{
					OFFSET -0.013390 0.211636 -0.033468
					CHANNELS 3 Zrotation Yrotation Xrotation
					JOINT upperneck
					{
						OFFSET 0.010113 0.088937 0.050410
						CHANNELS 3 Zrotation Yrotation Xrotation
						End Site
						{
							OFFSET 0.000000 0.000000 0.000000
						}
					}
				}
				JOINT lclavicle
				{
					OFFSET 0.071702 0.114000 -0.018898
					CHANNELS 3 Zrotation Yrotation Xrotation
					JOINT lshoulder
					{
						OFFSET 0.122921 0.045205 -0.019046
						CHANNELS 3 Zrotation Yrotation Xrotation
						JOINT lelbow
						{
							OFFSET 0.255332 -0.015649 -0.022946
							CHANNELS 3 Zrotation Yrotation Xrotation
							JOINT lwrist
							{
								OFFSET 0.265709 0.012698 -0.007375
								CHANNELS 3 Zrotation Yrotation Xrotation
								End Site
								{
									OFFSET 0.000000 0.000000 0.000000
								}
							}
						}
					}
				}
				JOINT rclavicle
				{
					OFFSET -0.082954 0.112472 -0.023707
					CHANNELS 3 Zrotation Yrotation Xrotation
					JOINT rshoulder
					{
						OFFSET -0.113228 0.046853 -0.008472
						CHANNELS 3 Zrotation Yrotation Xrotation
						JOINT relbow
						{
							OFFSET -0.260127 -0.014369 -0.031269
							CHANNELS 3 Zrotation Yrotation Xrotation
							JOINT rwrist
							{
								OFFSET -0.269108 0.006794 -0.006027
								CHANNELS 3 Zrotation Yrotation Xrotation
								End Site
								{
									OFFSET 0.000000 0.000000 0.000000
								}
							}
						}
					}
				}
			}
		}
	}
}
MOTION
Frames: 10
Frame Time: 0.033333
0.048077 -0.253462 0.833533 172.042933 9.631131 107.252909 1.691316 1.710537 -9.306806 -5.821505 3.694697 77.075148 2.750129 10.076410 -13.716118 0.000000 -0.000000 0.000000 -6.805669 2.821047 -49.459922 6.590088 -12.001935 64.883821 -6.960027 -7.913827 -33.711338 0.000000 -0.000000 0.000000 6.059397 -6.953440 32.065179 6.653280 -0.695112 7.688048 3.691139 -3.037521 0.302379 -0.299577 18.779371 -14.144972 -17.236689 24.619392 -12.518567 -17.938778 -8.740698 6.290722 -65.233582 14.374278 4.703083 -7.784098 -49.335222 29.875198 8.858144 -3.425052 -12.791739 6.657177 23.083262 -8.779518 50.879773 45.865558 13.644947 -121.775950 63.696423 -94.772957 14.131429 -0.086224 8.744643 
0.045626 -0.156246 0.837970 169.218825 8.577707 105.661210 3.541043 0.567814 -24.653403 -5.151235 8.340999 91.612921 4.337563 10.459624 -16.785099 0.000000 -0.000000 0.000000 -6.522640 0.615396 -39.838812 8.004145 -6.953390 63.184188 -5.643237 -7.099299 -36.889546 0.000000 -0.000000 0.000000 6.884430 -1.517356 35.164466 2.993525 2.110087 6.827487 2.441832 0.005273 0.292231 -1.097479 11.624967 -15.572000 -13.227890 20.732669 -14.930370 -20.399660 -8.544306 6.377612 -60.732331 19.768736 4.658099 -11.059132 -44.023974 29.103604 12.770614 -1.441858 -11.807315 6.982790 25.121505 -7.310187 34.855838 41.300509 0.990369 -84.002914 68.778358 -64.358505 11.004476 1.673162 9.811286 
0.042003 -0.057185 0.847894 167.521766 6.859175 104.301581 7.800916 -0.786754 -40.956098 -4.185081 11.977316 94.307083 4.713433 11.175982 -19.404508 0.000000 -0.000000 0.000000 -8.581233 -3.455160 -29.008243 11.170482 -0.157149 58.711955 -2.788648 -4.612320 -36.638351 0.000000 -0.000000 0.000000 6.369688 5.316767 36.443632 1.007779 3.797988 8.837229 2.080450 2.713641 0.445455 -1.858557 6.821901 -15.942906 -9.515698 13.868880 -15.468004 -20.948209 -7.516476 6.508384 -55.787271 21.023999 6.348317 -13.852947 -44.787361 31.743287 13.682384 -2.441734 -12.673417 9.359408 26.907101 -3.541929 17.018967 36.407093 -12.674702 -30.364371 54.095085 -19.380325 5.459737 3.785960 16.404540 
0.036360 0.049951 0.860856 166.878760 4.906786 104.075243 13.252150 0.135277 -53.972236 -0.942247 16.449107 85.110274 4.764820 11.664573 -20.342455 0.000000 -0.000000 0.000000 -13.138448 -7.026654 -17.808745 13.014539 5.732718 51.595650 2.034234 0.023167 -31.490148 0.000000 -0.000000 0.000000 4.850478 12.081913 36.740293 0.084966 4.720629 10.980694 2.094095 5.061424 -0.352378 -1.569156 2.881347 -16.512225 -5.767007 7.504442 -12.789033 -20.700669 -7.965307 6.191847 -54.080708 19.207872 9.890666 -12.846317 -44.763938 33.036249 14.440573 -3.421877 -12.980135 11.294097 29.367899 -0.237514 5.502494 31.030161 -22.437642 -12.129792 23.323920 -11.798934 9.132899 -0.081906 23.179941 
0.029390 0.162905 0.875752 168.889268 2.917189 105.774737 16.023394 2.685989 -62.298595 -2.730518 21.695277 67.662467 3.163566 7.557203 -18.977613 0.000000 -0.000000 0.000000 -16.981253 -8.109868 -8.375633 11.682276 10.940321 43.745509 9.625611 6.091924 -17.688738 0.000000 -0.000000 0.000000 3.471280 17.034472 37.134088 -0.833412 4.461527 11.769289 2.154507 6.117948 -2.822942 -0.628978 -1.742747 -15.159378 -0.132400 3.623567 -14.727786 -22.873549 -9.103933 5.996288 -52.694880 16.847407 12.529804 -9.780201 -44.954401 27.125832 17.232135 -2.615913 -14.528623 14.190392 28.536911 1.712387 7.905451 24.223781 -25.153774 -10.904307 5.736585 -33.869584 6.417127 -0.318722 8.184510 
0.020893 0.283668 0.885689 173.414482 1.990772 105.522234 12.462604 4.512557 -63.067506 -7.201564 20.943746 53.851668 0.425657 1.053500 -15.968857 0.000000 -0.000000 0.000000 -15.470113 -6.061338 -0.352304 6.367545 13.216648 40.929699 13.137435 5.423662 -3.689592 0.000000 -0.000000 0.000000 2.676650 17.562810 38.381775 -0.312647 2.541496 12.119955 2.730257 5.383020 -3.288259 0.293141 -3.353881 -15.928946 2.827130 2.927203 -15.971400 -26.917509 -9.508942 5.990945 -53.891137 13.743505 11.732095 -3.175514 -43.669246 17.327452 16.955970 -2.690027 -16.683883 19.803182 24.695514 1.974922 13.810346 20.740255 -24.345374 -14.738474 12.132202 -52.872679 6.548029 4.825634 -21.661975 
0.008294 0.403640 0.880864 179.044509 1.251737 104.858386 8.712683 2.026805 -58.789705 -6.638130 21.763089 51.826050 1.062086 -0.593552 -12.317716 0.000000 -0.000000 0.000000 -11.895454 -2.947146 -0.338786 4.507351 6.517748 55.840204 8.447590 -0.093103 -7.243913 0.000000 -0.000000 0.000000 1.493941 14.000763 37.749359 0.666793 -0.212131 12.935549 3.234684 3.704105 -3.741372 0.535694 -2.224355 -14.505701 2.833020 5.551087 -15.530492 -28.686468 -10.197152 6.442806 -57.665440 10.751852 9.156137 3.924030 -41.371284 7.338080 13.564807 -1.702664 -18.167674 21.978523 22.382695 2.816033 23.587325 18.980002 -16.695826 -25.036455 21.010340 -54.423292 4.879176 7.040721 -25.819705 
-0.006532 0.524058 0.868305 -176.064908 0.849438 104.277862 3.585673 -0.995235 -50.399320 -8.095227 17.576468 54.344938 11.634051 7.668992 -27.697440 0.000000 -0.000000 0.000000 -10.296758 -2.749254 -6.414561 4.476117 -1.226300 76.503937 5.889929 -3.593638 -8.917668 0.000000 -0.000000 0.000000 0.793004 9.073634 36.923787 2.284583 -2.924651 11.452563 3.242707 1.377187 -0.802523 1.715245 -0.069242 -16.262623 -0.009384 7.452365 -15.291945 -30.074168 -10.053570 5.085887 -58.653260 5.750296 7.593586 7.851341 -39.449784 0.071752 12.974014 0.220385 -20.543799 22.914850 18.505920 0.533710 31.418620 18.783443 -8.930818 -37.833952 30.839713 -59.318574 3.622566 9.122941 -33.624319 
-0.018584 0.637260 0.862147 -173.419583 0.130035 105.285696 2.395315 -4.201949 -45.553459 -7.308341 15.793771 59.441872 10.834637 9.469176 -32.530803 0.000000 -0.000000 0.000000 -9.839840 -1.370388 -21.017746 3.390237 -7.392620 96.202911 3.679666 -3.113507 -11.459376 0.000000 -0.000000 0.000000 -1.185188 5.560685 36.641049 4.270588 -5.139812 10.445682 3.733189 -0.946975 -0.985962 1.561243 3.621754 -15.600689 -2.114173 8.529008 -19.195933 -29.937481 -11.307305 4.858406 -57.994424 1.894533 6.382411 13.321831 -41.897715 -7.645450 12.474885 0.712838 -19.929258 24.150400 16.047576 -0.229133 35.992644 18.715743 -4.973751 -54.663775 37.111978 -70.600546 -2.795127 7.530209 -40.877687 
-0.029297 0.753122 0.868153 -172.608585 -0.919107 103.789481 -1.401947 -3.239971 -33.412752 -9.092663 10.387686 56.906433 9.940484 11.289864 -34.781460 0.000000 -0.000000 0.000000 -8.847999 -0.851548 -36.582487 2.499030 -9.011324 105.678409 0.821298 -4.621814 -12.532027 0.000000 -0.000000 0.000000 -4.018114 2.877412 38.519719 6.274656 -6.319345 10.717221 4.799108 -3.154104 -0.632476 0.173451 8.546900 -17.700246 -5.702705 9.324109 -19.064157 -26.312458 -12.517767 3.576120 -55.519129 -0.865228 5.590165 16.117962 -48.955056 -10.055990 11.040630 -0.485598 -19.898768 22.970952 15.090719 -3.254991 42.676786 19.307142 -1.281627 -71.108426 35.019111 -82.109050 3.637317 10.175426 -39.603902 
